<?xml version="1.0" encoding="UTF-8" standalone="no"?>
<!DOCTYPE svg PUBLIC "-//W3C//DTD SVG 1.1//EN"
 "http://www.w3.org/Graphics/SVG/1.1/DTD/svg11.dtd">
<!-- Generated by graphviz version 2.38.0 (20140413.2041)
 -->
<!-- Title: G Pages: 1 -->
<svg width="3446pt" height="1197pt"
 viewBox="0.00 0.00 3446.00 1196.60" xmlns="http://www.w3.org/2000/svg" xmlns:xlink="http://www.w3.org/1999/xlink">
<g id="graph0" class="graph" transform="scale(1 1) rotate(0) translate(4 1192.6)">
<title>G</title>
<polygon fill="white" stroke="none" points="-4,4 -4,-1192.6 3442,-1192.6 3442,4 -4,4"/>
<g id="clust1" class="cluster"><title>cluster_0</title>
<polygon fill="lightgray" stroke="lightgrey" points="1084,-969.2 1084,-1180.6 2028,-1180.6 2028,-969.2 1084,-969.2"/>
<text text-anchor="middle" x="1556.43" y="-1149.6" font-family="Times,serif" font-size="30.00">/Users/niclasschmuck/Documents/Projekte/Evendo/evendo&#45;backend/server.js</text>
</g>
<g id="clust2" class="cluster"><title>cluster_1</title>
<polygon fill="lightgray" stroke="lightgrey" points="8,-71 8,-792.2 1144,-792.2 1144,-71 8,-71"/>
<text text-anchor="middle" x="576.29" y="-761.2" font-family="Times,serif" font-size="30.00">/Users/niclasschmuck/Documents/Projekte/Evendo/evendo&#45;backend/modules/loginModule.js</text>
</g>
<g id="clust3" class="cluster"><title>cluster_2</title>
<polygon fill="lightgray" stroke="lightgrey" points="2266,-8 2266,-792.2 3430,-792.2 3430,-8 2266,-8"/>
<text text-anchor="middle" x="2848.43" y="-761.2" font-family="Times,serif" font-size="30.00">/Users/niclasschmuck/Documents/Projekte/Evendo/evendo&#45;backend/modules/registerModule.js</text>
</g>
<g id="clust4" class="cluster"><title>cluster_3</title>
<polygon fill="lightgray" stroke="lightgrey" points="1152,-315 1152,-664.8 2258,-664.8 2258,-315 1152,-315"/>
<text text-anchor="middle" x="1705.24" y="-633.8" font-family="Times,serif" font-size="30.00">/Users/niclasschmuck/Documents/Projekte/Evendo/evendo&#45;backend/database/dbconnect.js</text>
</g>
<g id="clust5" class="cluster"><title>cluster_4</title>
<polygon fill="lightgray" stroke="lightgrey" points="87,-800.2 87,-961.2 1171,-961.2 1171,-800.2 87,-800.2"/>
<text text-anchor="middle" x="629.429" y="-930.2" font-family="Times,serif" font-size="30.00">/Users/niclasschmuck/Documents/Projekte/Evendo/evendo&#45;backend/router/authRouter.js</text>
</g>
<g id="clust6" class="cluster"><title>cluster_5</title>
<polygon fill="lightgray" stroke="lightgrey" points="1179,-808.6 1179,-952.8 2313,-952.8 2313,-808.6 1179,-808.6"/>
<text text-anchor="middle" x="1746.4" y="-921.8" font-family="Times,serif" font-size="30.00">/Users/niclasschmuck/Documents/Projekte/Evendo/evendo&#45;backend/router/calendarRouter.js</text>
</g>
<g id="clust7" class="cluster"><title>cluster_6</title>
<polygon fill="lightgray" stroke="lightgrey" points="2321,-808.6 2321,-952.8 3407,-952.8 3407,-808.6 2321,-808.6"/>
<text text-anchor="middle" x="2864.27" y="-921.8" font-family="Times,serif" font-size="30.00">/Users/niclasschmuck/Documents/Projekte/Evendo/evendo&#45;backend/router/todoRouter.js</text>
</g>
<!-- 0 -->
<g id="node1" class="node"><title>0</title>
<polygon fill="lightyellow" stroke="black" points="1604.8,-977.7 1604.8,-1128.1 1887.2,-1128.1 1887.2,-977.7 1604.8,-977.7"/>
<text text-anchor="middle" x="1746" y="-1111.5" font-family="Times,serif" font-size="14.00">«GLOBAL»</text>
<polyline fill="none" stroke="black" points="1604.8,-1103.3 1887.2,-1103.3 "/>
<text text-anchor="start" x="1612.8" y="-1086.7" font-family="Times,serif" font-size="14.00">&#45;authRouter : variable = .routerauthRouter</text>
<text text-anchor="start" x="1612.8" y="-1069.9" font-family="Times,serif" font-size="14.00">&#45;bodyParser : variable = body&#45;parser</text>
<text text-anchor="start" x="1612.8" y="-1053.1" font-family="Times,serif" font-size="14.00">&#45;eventRouter : variable = .routercalendarRouter</text>
<text text-anchor="start" x="1612.8" y="-1036.3" font-family="Times,serif" font-size="14.00">&#45;express : variable = express</text>
<text text-anchor="start" x="1612.8" y="-1019.5" font-family="Times,serif" font-size="14.00">&#45;subdomain : variable = express&#45;subdomain</text>
<text text-anchor="start" x="1612.8" y="-1002.7" font-family="Times,serif" font-size="14.00">&#45;todoRouter : variable = .routertodoRouter</text>
<text text-anchor="start" x="1612.8" y="-985.9" font-family="Times,serif" font-size="14.00">&#45;webserver : variable</text>
</g>
<!-- 4 -->
<g id="node37" class="node"><title>4</title>
<polygon fill="lightyellow" stroke="black" points="889.263,-808.7 889.263,-908.7 1162.74,-908.7 1162.74,-808.7 889.263,-808.7"/>
<text text-anchor="middle" x="1026" y="-892.1" font-family="Times,serif" font-size="14.00">«GLOBAL»</text>
<polyline fill="none" stroke="black" points="889.263,-883.9 1162.74,-883.9 "/>
<text text-anchor="start" x="897.263" y="-867.3" font-family="Times,serif" font-size="14.00">&#45;express : variable = express</text>
<text text-anchor="start" x="897.263" y="-850.5" font-family="Times,serif" font-size="14.00">&#45;login : variable = ..modulesloginModule</text>
<text text-anchor="start" x="897.263" y="-833.7" font-family="Times,serif" font-size="14.00">&#45;register : variable = ..modulesregisterModule</text>
<text text-anchor="start" x="897.263" y="-816.9" font-family="Times,serif" font-size="14.00">&#45;router : variable</text>
</g>
<!-- 0&#45;&gt;4 -->
<g id="edge31" class="edge"><title>0&#45;&gt;4</title>
<path fill="none" stroke="black" d="M1470,-969.2C1440.08,-964.395 1238.48,-970.167 1180.77,-960.946"/>
<polygon fill="black" stroke="black" points="1181.27,-957.473 1170.75,-958.741 1179.77,-964.309 1181.27,-957.473"/>
</g>
<!-- 5 -->
<g id="node41" class="node"><title>5</title>
<polygon fill="lightyellow" stroke="black" points="1635.44,-817.1 1635.44,-900.3 1856.56,-900.3 1856.56,-817.1 1635.44,-817.1"/>
<text text-anchor="middle" x="1746" y="-883.7" font-family="Times,serif" font-size="14.00">«GLOBAL»</text>
<polyline fill="none" stroke="black" points="1635.44,-875.5 1856.56,-875.5 "/>
<text text-anchor="start" x="1643.44" y="-858.9" font-family="Times,serif" font-size="14.00">+module.exports : identifier = router</text>
<text text-anchor="start" x="1643.44" y="-842.1" font-family="Times,serif" font-size="14.00">&#45;express : variable = express</text>
<text text-anchor="start" x="1643.44" y="-825.3" font-family="Times,serif" font-size="14.00">&#45;router : variable</text>
</g>
<!-- 0&#45;&gt;5 -->
<g id="edge32" class="edge"><title>0&#45;&gt;5</title>
<path fill="none" stroke="black" d="M1746,-969.369C1746,-967.223 1746,-965.068 1746,-962.908"/>
<polygon fill="black" stroke="black" points="1749.5,-962.756 1746,-952.756 1742.5,-962.756 1749.5,-962.756"/>
</g>
<!-- 6 -->
<g id="node42" class="node"><title>6</title>
<polygon fill="lightyellow" stroke="black" points="2329.44,-817.1 2329.44,-900.3 2550.56,-900.3 2550.56,-817.1 2329.44,-817.1"/>
<text text-anchor="middle" x="2440" y="-883.7" font-family="Times,serif" font-size="14.00">«GLOBAL»</text>
<polyline fill="none" stroke="black" points="2329.44,-875.5 2550.56,-875.5 "/>
<text text-anchor="start" x="2337.44" y="-858.9" font-family="Times,serif" font-size="14.00">+module.exports : identifier = router</text>
<text text-anchor="start" x="2337.44" y="-842.1" font-family="Times,serif" font-size="14.00">&#45;express : variable = express</text>
<text text-anchor="start" x="2337.44" y="-825.3" font-family="Times,serif" font-size="14.00">&#45;router : variable</text>
</g>
<!-- 0&#45;&gt;6 -->
<g id="edge33" class="edge"><title>0&#45;&gt;6</title>
<path fill="none" stroke="black" d="M2027.76,-1036.06C2121.8,-1023.24 2225.18,-1000.68 2314,-961.2 2316.65,-960.023 2319.29,-958.775 2321.92,-957.466"/>
<polygon fill="black" stroke="black" points="2323.58,-960.543 2330.8,-952.783 2320.32,-954.351 2323.58,-960.543"/>
</g>
<!-- 38 -->
<g id="node2" class="node"><title>38</title>
<polygon fill="lightblue" stroke="black" points="1355.96,-1032.1 1355.96,-1073.7 1466.04,-1073.7 1466.04,-1032.1 1355.96,-1032.1"/>
<text text-anchor="middle" x="1411" y="-1057.1" font-family="Times,serif" font-size="14.00">«FUNCTION»</text>
<text text-anchor="middle" x="1411" y="-1040.3" font-family="Times,serif" font-size="14.00"> ()</text>
</g>
<!-- 1 -->
<g id="node3" class="node"><title>1</title>
<polygon fill="lightyellow" stroke="black" points="871.542,-673.3 871.542,-739.7 1136.46,-739.7 1136.46,-673.3 871.542,-673.3"/>
<text text-anchor="middle" x="1004" y="-723.1" font-family="Times,serif" font-size="14.00">«GLOBAL»</text>
<polyline fill="none" stroke="black" points="871.542,-714.9 1136.46,-714.9 "/>
<text text-anchor="start" x="879.542" y="-698.3" font-family="Times,serif" font-size="14.00">&#45;bcrypt : variable = bcrypt</text>
<text text-anchor="start" x="879.542" y="-681.5" font-family="Times,serif" font-size="14.00">&#45;dbConnect : variable = ..databasedbconnect</text>
</g>
<!-- 3 -->
<g id="node32" class="node"><title>3</title>
<polygon fill="lightyellow" stroke="black" points="1806.96,-527.5 1806.96,-563.5 1903.04,-563.5 1903.04,-527.5 1806.96,-527.5"/>
<text text-anchor="middle" x="1855" y="-541.4" font-family="Times,serif" font-size="14.00">«GLOBAL»</text>
</g>
<!-- 1&#45;&gt;3 -->
<g id="edge15" class="edge"><title>1&#45;&gt;3</title>
<path fill="none" stroke="black" d="M1143.75,-699.23C1227.59,-693.875 1336.38,-684.13 1433.1,-666.627"/>
<polygon fill="black" stroke="black" points="1433.8,-670.057 1443,-664.8 1432.53,-663.173 1433.8,-670.057"/>
</g>
<!-- 21 -->
<g id="node4" class="node"><title>21</title>
<polygon fill="lightblue" stroke="black" points="81.96,-685.7 81.96,-727.3 192.04,-727.3 192.04,-685.7 81.96,-685.7"/>
<text text-anchor="middle" x="137" y="-710.7" font-family="Times,serif" font-size="14.00">«FUNCTION»</text>
<text text-anchor="middle" x="137" y="-693.9" font-family="Times,serif" font-size="14.00"> login(req,res)</text>
</g>
<!-- 22 -->
<g id="node5" class="node"><title>22</title>
<polygon fill="lightblue" stroke="black" points="81.96,-524.7 81.96,-566.3 192.04,-566.3 192.04,-524.7 81.96,-524.7"/>
<text text-anchor="middle" x="137" y="-549.7" font-family="Times,serif" font-size="14.00">«FUNCTION»</text>
<text text-anchor="middle" x="137" y="-532.9" font-family="Times,serif" font-size="14.00"> (db)</text>
</g>
<!-- 21&#45;&gt;22 -->
<g id="edge16" class="edge"><title>21&#45;&gt;22</title>
<path fill="none" stroke="black" d="M137,-673.464C137,-641.427 137,-593.167 137,-566.315"/>
<polygon fill="black" stroke="black" points="137,-673.684 141,-679.684 137,-685.684 133,-679.684 137,-673.684"/>
</g>
<!-- 23 -->
<g id="node6" class="node"><title>23</title>
<polygon fill="khaki" stroke="black" points="27.48,-415.7 27.48,-457.3 132.52,-457.3 132.52,-415.7 27.48,-415.7"/>
<text text-anchor="middle" x="80" y="-440.7" font-family="Times,serif" font-size="14.00">«BLOCK»</text>
<text text-anchor="middle" x="80" y="-423.9" font-family="Times,serif" font-size="14.00"> CallExpression</text>
</g>
<!-- 22&#45;&gt;23 -->
<g id="edge17" class="edge"><title>22&#45;&gt;23</title>
<path fill="none" stroke="black" d="M120.764,-514.023C111.131,-495.939 99.1872,-473.518 90.7244,-457.632"/>
<polygon fill="black" stroke="black" points="120.77,-514.034 127.122,-517.449 126.412,-524.625 120.061,-521.21 120.77,-514.034"/>
</g>
<!-- 24 -->
<g id="node7" class="node"><title>24</title>
<polygon fill="khaki" stroke="black" points="139.48,-415.7 139.48,-457.3 244.52,-457.3 244.52,-415.7 139.48,-415.7"/>
<text text-anchor="middle" x="192" y="-440.7" font-family="Times,serif" font-size="14.00">«BLOCK»</text>
<text text-anchor="middle" x="192" y="-423.9" font-family="Times,serif" font-size="14.00"> CallExpression</text>
</g>
<!-- 22&#45;&gt;24 -->
<g id="edge18" class="edge"><title>22&#45;&gt;24</title>
<path fill="none" stroke="black" d="M152.798,-513.766C162.07,-495.727 173.525,-473.443 181.652,-457.632"/>
<polygon fill="black" stroke="black" points="152.702,-513.952 153.517,-521.117 147.216,-524.625 146.402,-517.46 152.702,-513.952"/>
</g>
<!-- 25 -->
<g id="node8" class="node"><title>25</title>
<polygon fill="lightblue" stroke="black" points="83.76,-294.3 83.76,-394.3 300.24,-394.3 300.24,-294.3 83.76,-294.3"/>
<text text-anchor="middle" x="192" y="-377.7" font-family="Times,serif" font-size="14.00">«FUNCTION»</text>
<text text-anchor="middle" x="192" y="-360.9" font-family="Times,serif" font-size="14.00"> (err,result,fields)</text>
<polyline fill="none" stroke="black" points="83.76,-352.7 300.24,-352.7 "/>
<text text-anchor="start" x="91.76" y="-336.1" font-family="Times,serif" font-size="14.00">+module.exports : identifier = login</text>
<text text-anchor="start" x="91.76" y="-319.3" font-family="Times,serif" font-size="14.00">&#45;req.session.user</text>
<text text-anchor="start" x="91.76" y="-302.5" font-family="Times,serif" font-size="14.00">publicresult : object</text>
</g>
<!-- 24&#45;&gt;25 -->
<g id="edge19" class="edge"><title>24&#45;&gt;25</title>
<path fill="none" stroke="black" d="M192,-403.352C192,-400.43 192,-397.429 192,-394.405"/>
<polygon fill="black" stroke="black" points="192,-403.482 196,-409.482 192,-415.482 188,-409.482 192,-403.482"/>
</g>
<!-- 26 -->
<g id="node9" class="node"><title>26</title>
<polygon fill="khaki" stroke="black" points="41.48,-243.7 41.48,-285.3 146.52,-285.3 146.52,-243.7 41.48,-243.7"/>
<text text-anchor="middle" x="94" y="-268.7" font-family="Times,serif" font-size="14.00">«BLOCK»</text>
<text text-anchor="middle" x="94" y="-251.9" font-family="Times,serif" font-size="14.00"> CallExpression</text>
</g>
<!-- 25&#45;&gt;26 -->
<g id="edge20" class="edge"><title>25&#45;&gt;26</title>
<path fill="none" stroke="black" d="M120.505,-286.542C120.061,-286.189 119.621,-285.84 119.184,-285.493"/>
<polygon fill="black" stroke="black" points="120.815,-286.788 128.001,-287.385 130.213,-294.249 123.027,-293.651 120.815,-286.788"/>
</g>
<!-- 27 -->
<g id="node10" class="node"><title>27</title>
<polygon fill="khaki" stroke="black" points="153.62,-243.7 153.62,-285.3 240.38,-285.3 240.38,-243.7 153.62,-243.7"/>
<text text-anchor="middle" x="197" y="-268.7" font-family="Times,serif" font-size="14.00">«BLOCK»</text>
<text text-anchor="middle" x="197" y="-251.9" font-family="Times,serif" font-size="14.00"> IfStatement</text>
</g>
<!-- 25&#45;&gt;27 -->
<g id="edge21" class="edge"><title>25&#45;&gt;27</title>
<path fill="none" stroke="black" d="M195.709,-285.589C195.714,-285.503 195.72,-285.417 195.726,-285.33"/>
<polygon fill="black" stroke="black" points="195.936,-282.053 199.543,-288.297 195.167,-294.028 191.56,-287.784 195.936,-282.053"/>
</g>
<!-- 28 -->
<g id="node11" class="node"><title>28</title>
<polygon fill="khaki" stroke="black" points="44.48,-193.1 44.48,-234.7 149.52,-234.7 149.52,-193.1 44.48,-193.1"/>
<text text-anchor="middle" x="97" y="-218.1" font-family="Times,serif" font-size="14.00">«BLOCK»</text>
<text text-anchor="middle" x="97" y="-201.3" font-family="Times,serif" font-size="14.00"> CallExpression</text>
</g>
<!-- 27&#45;&gt;28 -->
<g id="edge22" class="edge"><title>27&#45;&gt;28</title>
<path fill="none" stroke="black" d="M145.074,-238.264C142.724,-237.122 140.379,-235.982 138.06,-234.855"/>
<polygon fill="black" stroke="black" points="145.245,-238.347 152.39,-237.372 156.038,-243.592 148.893,-244.567 145.245,-238.347"/>
</g>
<!-- 29 -->
<g id="node12" class="node"><title>29</title>
<polygon fill="khaki" stroke="black" points="156.62,-193.1 156.62,-234.7 243.38,-234.7 243.38,-193.1 156.62,-193.1"/>
<text text-anchor="middle" x="200" y="-218.1" font-family="Times,serif" font-size="14.00">«BLOCK»</text>
<text text-anchor="middle" x="200" y="-201.3" font-family="Times,serif" font-size="14.00"> IfStatement</text>
</g>
<!-- 27&#45;&gt;29 -->
<g id="edge23" class="edge"><title>27&#45;&gt;29</title>
<path fill="none" stroke="black" d="M198.749,-235.167C198.754,-235.079 198.76,-234.99 198.765,-234.902"/>
<polygon fill="black" stroke="black" points="198.977,-231.475 202.6,-237.71 198.238,-243.452 194.615,-237.217 198.977,-231.475"/>
</g>
<!-- 30 -->
<g id="node13" class="node"><title>30</title>
<polygon fill="khaki" stroke="black" points="26.48,-142.5 26.48,-184.1 131.52,-184.1 131.52,-142.5 26.48,-142.5"/>
<text text-anchor="middle" x="79" y="-167.5" font-family="Times,serif" font-size="14.00">«BLOCK»</text>
<text text-anchor="middle" x="79" y="-150.7" font-family="Times,serif" font-size="14.00"> CallExpression</text>
</g>
<!-- 29&#45;&gt;30 -->
<g id="edge24" class="edge"><title>29&#45;&gt;30</title>
<path fill="none" stroke="black" d="M145.186,-189.46C140.227,-187.475 135.93,-185.786 131.661,-184.124"/>
<polygon fill="black" stroke="black" points="145.371,-189.535 152.433,-188.075 156.496,-194.033 149.434,-195.492 145.371,-189.535"/>
</g>
<!-- 31 -->
<g id="node14" class="node"><title>31</title>
<polygon fill="khaki" stroke="black" points="138.705,-142.5 138.705,-184.1 287.295,-184.1 287.295,-142.5 138.705,-142.5"/>
<text text-anchor="middle" x="213" y="-167.5" font-family="Times,serif" font-size="14.00">«BLOCK»</text>
<text text-anchor="middle" x="213" y="-150.7" font-family="Times,serif" font-size="14.00"> AssignmentExpression</text>
</g>
<!-- 29&#45;&gt;31 -->
<g id="edge25" class="edge"><title>29&#45;&gt;31</title>
<path fill="none" stroke="black" d="M207.579,-184.567C207.602,-184.479 207.626,-184.39 207.65,-184.302"/>
<polygon fill="black" stroke="black" points="208.464,-181.259 210.777,-188.089 205.363,-192.852 203.049,-186.022 208.464,-181.259"/>
</g>
<!-- 32 -->
<g id="node15" class="node"><title>32</title>
<polygon fill="khaki" stroke="black" points="76.7051,-79.5 76.7051,-121.1 225.295,-121.1 225.295,-79.5 76.7051,-79.5"/>
<text text-anchor="middle" x="151" y="-104.5" font-family="Times,serif" font-size="14.00">«BLOCK»</text>
<text text-anchor="middle" x="151" y="-87.7" font-family="Times,serif" font-size="14.00"> AssignmentExpression</text>
</g>
<!-- 31&#45;&gt;32 -->
<g id="edge26" class="edge"><title>31&#45;&gt;32</title>
<path fill="none" stroke="black" d="M183.971,-133.739C179.63,-129.468 175.237,-125.146 171.135,-121.11"/>
<polygon fill="black" stroke="black" points="184.145,-133.91 191.227,-135.267 192.699,-142.326 185.617,-140.97 184.145,-133.91"/>
</g>
<!-- 33 -->
<g id="node16" class="node"><title>33</title>
<polygon fill="khaki" stroke="black" points="232.48,-79.5 232.48,-121.1 337.52,-121.1 337.52,-79.5 232.48,-79.5"/>
<text text-anchor="middle" x="285" y="-104.5" font-family="Times,serif" font-size="14.00">«BLOCK»</text>
<text text-anchor="middle" x="285" y="-87.7" font-family="Times,serif" font-size="14.00"> CallExpression</text>
</g>
<!-- 31&#45;&gt;33 -->
<g id="edge27" class="edge"><title>31&#45;&gt;33</title>
<path fill="none" stroke="black" d="M245.916,-134.413C251.215,-129.924 256.603,-125.359 261.617,-121.11"/>
<polygon fill="black" stroke="black" points="245.731,-134.569 243.739,-141.5 236.575,-142.326 238.568,-135.396 245.731,-134.569"/>
</g>
<!-- 2 -->
<g id="node17" class="node"><title>2</title>
<polygon fill="lightyellow" stroke="black" points="2273.54,-673.3 2273.54,-739.7 2538.46,-739.7 2538.46,-673.3 2273.54,-673.3"/>
<text text-anchor="middle" x="2406" y="-723.1" font-family="Times,serif" font-size="14.00">«GLOBAL»</text>
<polyline fill="none" stroke="black" points="2273.54,-714.9 2538.46,-714.9 "/>
<text text-anchor="start" x="2281.54" y="-698.3" font-family="Times,serif" font-size="14.00">&#45;bcrypt : variable = bcrypt</text>
<text text-anchor="start" x="2281.54" y="-681.5" font-family="Times,serif" font-size="14.00">&#45;dbConnect : variable = ..databasedbconnect</text>
</g>
<!-- 2&#45;&gt;3 -->
<g id="edge1" class="edge"><title>2&#45;&gt;3</title>
<path fill="none" stroke="black" d="M2266,-665.5C2263.92,-664.8 2261.84,-664.1 2259.76,-663.399"/>
<polygon fill="black" stroke="black" points="2268.27,-662.572 2257.68,-662.699 2266.04,-669.206 2268.27,-662.572"/>
</g>
<!-- 7 -->
<g id="node18" class="node"><title>7</title>
<polygon fill="lightblue" stroke="black" points="2915.96,-685.7 2915.96,-727.3 3026.04,-727.3 3026.04,-685.7 2915.96,-685.7"/>
<text text-anchor="middle" x="2971" y="-710.7" font-family="Times,serif" font-size="14.00">«FUNCTION»</text>
<text text-anchor="middle" x="2971" y="-693.9" font-family="Times,serif" font-size="14.00"> register(req,res)</text>
</g>
<!-- 8 -->
<g id="node19" class="node"><title>8</title>
<polygon fill="lightblue" stroke="black" points="2915.96,-524.7 2915.96,-566.3 3026.04,-566.3 3026.04,-524.7 2915.96,-524.7"/>
<text text-anchor="middle" x="2971" y="-549.7" font-family="Times,serif" font-size="14.00">«FUNCTION»</text>
<text text-anchor="middle" x="2971" y="-532.9" font-family="Times,serif" font-size="14.00"> (db)</text>
</g>
<!-- 7&#45;&gt;8 -->
<g id="edge2" class="edge"><title>7&#45;&gt;8</title>
<path fill="none" stroke="black" d="M2971,-673.464C2971,-641.427 2971,-593.167 2971,-566.315"/>
<polygon fill="black" stroke="black" points="2971,-673.684 2975,-679.684 2971,-685.684 2967,-679.684 2971,-673.684"/>
</g>
<!-- 9 -->
<g id="node20" class="node"><title>9</title>
<polygon fill="khaki" stroke="black" points="2862.48,-415.7 2862.48,-457.3 2967.52,-457.3 2967.52,-415.7 2862.48,-415.7"/>
<text text-anchor="middle" x="2915" y="-440.7" font-family="Times,serif" font-size="14.00">«BLOCK»</text>
<text text-anchor="middle" x="2915" y="-423.9" font-family="Times,serif" font-size="14.00"> CallExpression</text>
</g>
<!-- 8&#45;&gt;9 -->
<g id="edge3" class="edge"><title>8&#45;&gt;9</title>
<path fill="none" stroke="black" d="M2954.92,-513.766C2945.47,-495.727 2933.81,-473.443 2925.54,-457.632"/>
<polygon fill="black" stroke="black" points="2955.03,-513.993 2961.36,-517.454 2960.6,-524.625 2954.27,-521.164 2955.03,-513.993"/>
</g>
<!-- 10 -->
<g id="node21" class="node"><title>10</title>
<polygon fill="khaki" stroke="black" points="2974.48,-415.7 2974.48,-457.3 3079.52,-457.3 3079.52,-415.7 2974.48,-415.7"/>
<text text-anchor="middle" x="3027" y="-440.7" font-family="Times,serif" font-size="14.00">«BLOCK»</text>
<text text-anchor="middle" x="3027" y="-423.9" font-family="Times,serif" font-size="14.00"> CallExpression</text>
</g>
<!-- 8&#45;&gt;10 -->
<g id="edge4" class="edge"><title>8&#45;&gt;10</title>
<path fill="none" stroke="black" d="M2987.08,-513.766C2996.53,-495.727 3008.19,-473.443 3016.46,-457.632"/>
<polygon fill="black" stroke="black" points="2986.97,-513.993 2987.73,-521.164 2981.4,-524.625 2980.64,-517.454 2986.97,-513.993"/>
</g>
<!-- 11 -->
<g id="node22" class="node"><title>11</title>
<polygon fill="lightblue" stroke="black" points="2947.8,-302.7 2947.8,-385.9 3106.2,-385.9 3106.2,-302.7 2947.8,-302.7"/>
<text text-anchor="middle" x="3027" y="-369.3" font-family="Times,serif" font-size="14.00">«FUNCTION»</text>
<text text-anchor="middle" x="3027" y="-352.5" font-family="Times,serif" font-size="14.00"> (err,result,fields)</text>
<polyline fill="none" stroke="black" points="2947.8,-344.3 3106.2,-344.3 "/>
<text text-anchor="start" x="2955.8" y="-327.7" font-family="Times,serif" font-size="14.00">&#45;email : object</text>
<text text-anchor="start" x="2955.8" y="-310.9" font-family="Times,serif" font-size="14.00">&#45;password : variable = 10</text>
</g>
<!-- 10&#45;&gt;11 -->
<g id="edge5" class="edge"><title>10&#45;&gt;11</title>
<path fill="none" stroke="black" d="M3027,-403.164C3027,-397.587 3027,-391.726 3027,-385.964"/>
<polygon fill="black" stroke="black" points="3027,-403.482 3031,-409.482 3027,-415.482 3023,-409.482 3027,-403.482"/>
</g>
<!-- 12 -->
<g id="node23" class="node"><title>12</title>
<polygon fill="khaki" stroke="black" points="2922.48,-243.7 2922.48,-285.3 3027.52,-285.3 3027.52,-243.7 2922.48,-243.7"/>
<text text-anchor="middle" x="2975" y="-268.7" font-family="Times,serif" font-size="14.00">«BLOCK»</text>
<text text-anchor="middle" x="2975" y="-251.9" font-family="Times,serif" font-size="14.00"> CallExpression</text>
</g>
<!-- 11&#45;&gt;12 -->
<g id="edge6" class="edge"><title>11&#45;&gt;12</title>
<path fill="none" stroke="black" d="M2993.07,-292.535C2991.48,-290.157 2989.93,-287.844 2988.46,-285.637"/>
<polygon fill="black" stroke="black" points="2993.11,-292.6 2999.77,-295.366 2999.78,-302.577 2993.12,-299.812 2993.11,-292.6"/>
</g>
<!-- 13 -->
<g id="node24" class="node"><title>13</title>
<polygon fill="khaki" stroke="black" points="3034.62,-243.7 3034.62,-285.3 3121.38,-285.3 3121.38,-243.7 3034.62,-243.7"/>
<text text-anchor="middle" x="3078" y="-268.7" font-family="Times,serif" font-size="14.00">«BLOCK»</text>
<text text-anchor="middle" x="3078" y="-251.9" font-family="Times,serif" font-size="14.00"> IfStatement</text>
</g>
<!-- 11&#45;&gt;13 -->
<g id="edge7" class="edge"><title>11&#45;&gt;13</title>
<path fill="none" stroke="black" d="M3060.28,-292.535C3061.84,-290.157 3063.35,-287.844 3064.8,-285.637"/>
<polygon fill="black" stroke="black" points="3060.27,-292.541 3060.33,-299.752 3053.69,-302.577 3053.64,-295.366 3060.27,-292.541"/>
</g>
<!-- 14 -->
<g id="node25" class="node"><title>14</title>
<polygon fill="khaki" stroke="black" points="2969.48,-193.1 2969.48,-234.7 3074.52,-234.7 3074.52,-193.1 2969.48,-193.1"/>
<text text-anchor="middle" x="3022" y="-218.1" font-family="Times,serif" font-size="14.00">«BLOCK»</text>
<text text-anchor="middle" x="3022" y="-201.3" font-family="Times,serif" font-size="14.00"> CallExpression</text>
</g>
<!-- 13&#45;&gt;14 -->
<g id="edge8" class="edge"><title>13&#45;&gt;14</title>
<path fill="none" stroke="black" d="M3045.66,-235.432C3045.45,-235.255 3045.25,-235.078 3045.05,-234.902"/>
<polygon fill="black" stroke="black" points="3045.84,-235.587 3052.99,-236.498 3054.9,-243.452 3047.75,-242.54 3045.84,-235.587"/>
</g>
<!-- 20 -->
<g id="node31" class="node"><title>20</title>
<polygon fill="khaki" stroke="black" points="3081.48,-193.1 3081.48,-234.7 3186.52,-234.7 3186.52,-193.1 3081.48,-193.1"/>
<text text-anchor="middle" x="3134" y="-218.1" font-family="Times,serif" font-size="14.00">«BLOCK»</text>
<text text-anchor="middle" x="3134" y="-201.3" font-family="Times,serif" font-size="14.00"> CallExpression</text>
</g>
<!-- 13&#45;&gt;20 -->
<g id="edge14" class="edge"><title>13&#45;&gt;20</title>
<path fill="none" stroke="black" d="M3110.34,-235.432C3110.55,-235.255 3110.75,-235.078 3110.95,-234.902"/>
<polygon fill="black" stroke="black" points="3110.16,-235.587 3108.25,-242.54 3101.1,-243.452 3103.01,-236.498 3110.16,-235.587"/>
</g>
<!-- 15 -->
<g id="node26" class="node"><title>15</title>
<polygon fill="khaki" stroke="black" points="2906.48,-142.5 2906.48,-184.1 3011.52,-184.1 3011.52,-142.5 2906.48,-142.5"/>
<text text-anchor="middle" x="2959" y="-167.5" font-family="Times,serif" font-size="14.00">«BLOCK»</text>
<text text-anchor="middle" x="2959" y="-150.7" font-family="Times,serif" font-size="14.00"> CallExpression</text>
</g>
<!-- 14&#45;&gt;15 -->
<g id="edge9" class="edge"><title>14&#45;&gt;15</title>
<path fill="none" stroke="black" d="M2986.31,-185.364C2985.85,-185.009 2985.39,-184.655 2984.93,-184.302"/>
<polygon fill="black" stroke="black" points="2986.51,-185.522 2993.7,-186.02 2996.01,-192.852 2988.82,-192.354 2986.51,-185.522"/>
</g>
<!-- 16 -->
<g id="node27" class="node"><title>16</title>
<polygon fill="khaki" stroke="black" points="3018.51,-142.5 3018.51,-184.1 3151.49,-184.1 3151.49,-142.5 3018.51,-142.5"/>
<text text-anchor="middle" x="3085" y="-167.5" font-family="Times,serif" font-size="14.00">«BLOCK»</text>
<text text-anchor="middle" x="3085" y="-150.7" font-family="Times,serif" font-size="14.00"> VariableDeclaration</text>
</g>
<!-- 14&#45;&gt;16 -->
<g id="edge10" class="edge"><title>14&#45;&gt;16</title>
<path fill="none" stroke="black" d="M3057.69,-185.364C3058.15,-185.009 3058.61,-184.655 3059.07,-184.302"/>
<polygon fill="black" stroke="black" points="3057.49,-185.522 3055.18,-192.354 3047.99,-192.852 3050.3,-186.02 3057.49,-185.522"/>
</g>
<!-- 17 -->
<g id="node28" class="node"><title>17</title>
<polygon fill="lightblue" stroke="black" points="2970.16,-67.1 2970.16,-133.5 3199.84,-133.5 3199.84,-67.1 2970.16,-67.1"/>
<text text-anchor="middle" x="3085" y="-116.9" font-family="Times,serif" font-size="14.00">«FUNCTION»</text>
<text text-anchor="middle" x="3085" y="-100.1" font-family="Times,serif" font-size="14.00"> (err,result,fields)</text>
<polyline fill="none" stroke="black" points="2970.16,-91.9 3199.84,-91.9 "/>
<text text-anchor="start" x="2978.16" y="-75.3" font-family="Times,serif" font-size="14.00">+module.exports : identifier = register</text>
</g>
<!-- 16&#45;&gt;17 -->
<g id="edge11" class="edge"><title>16&#45;&gt;17</title>
<path fill="none" stroke="black" d="M3085,-133.973C3085,-133.881 3085,-133.789 3085,-133.698"/>
<polygon fill="black" stroke="black" points="3085,-130.326 3089,-136.326 3085,-142.326 3081,-136.326 3085,-130.326"/>
</g>
<!-- 18 -->
<g id="node29" class="node"><title>18</title>
<polygon fill="khaki" stroke="black" points="2976.48,-16.5 2976.48,-58.1 3081.52,-58.1 3081.52,-16.5 2976.48,-16.5"/>
<text text-anchor="middle" x="3029" y="-41.5" font-family="Times,serif" font-size="14.00">«BLOCK»</text>
<text text-anchor="middle" x="3029" y="-24.7" font-family="Times,serif" font-size="14.00"> CallExpression</text>
</g>
<!-- 17&#45;&gt;18 -->
<g id="edge12" class="edge"><title>17&#45;&gt;18</title>
<path fill="none" stroke="black" d="M3047.58,-58.5431C3047.5,-58.4549 3047.42,-58.3669 3047.34,-58.279"/>
<polygon fill="black" stroke="black" points="3047.24,-58.1739 3054.25,-59.8888 3055.36,-67.0138 3048.36,-65.299 3047.24,-58.1739"/>
</g>
<!-- 19 -->
<g id="node30" class="node"><title>19</title>
<polygon fill="khaki" stroke="black" points="3088.48,-16.5 3088.48,-58.1 3193.52,-58.1 3193.52,-16.5 3088.48,-16.5"/>
<text text-anchor="middle" x="3141" y="-41.5" font-family="Times,serif" font-size="14.00">«BLOCK»</text>
<text text-anchor="middle" x="3141" y="-24.7" font-family="Times,serif" font-size="14.00"> CallExpression</text>
</g>
<!-- 17&#45;&gt;19 -->
<g id="edge13" class="edge"><title>17&#45;&gt;19</title>
<path fill="none" stroke="black" d="M3122.42,-58.5431C3122.5,-58.4549 3122.58,-58.3669 3122.66,-58.279"/>
<polygon fill="black" stroke="black" points="3122.76,-58.1739 3121.64,-65.299 3114.64,-67.0138 3115.75,-59.8888 3122.76,-58.1739"/>
</g>
<!-- 34 -->
<g id="node33" class="node"><title>34</title>
<polygon fill="lightblue" stroke="black" points="1188.92,-478.7 1188.92,-612.3 1439.08,-612.3 1439.08,-478.7 1188.92,-478.7"/>
<text text-anchor="middle" x="1314" y="-595.7" font-family="Times,serif" font-size="14.00">«FUNCTION»</text>
<text text-anchor="middle" x="1314" y="-578.9" font-family="Times,serif" font-size="14.00"> connectMySQL(config,callback)</text>
<polyline fill="none" stroke="black" points="1188.92,-570.7 1439.08,-570.7 "/>
<text text-anchor="start" x="1196.92" y="-554.1" font-family="Times,serif" font-size="14.00">&#45;db : variable</text>
<text text-anchor="start" x="1196.92" y="-537.3" font-family="Times,serif" font-size="14.00">&#45;fs : variable = fs</text>
<text text-anchor="start" x="1196.92" y="-520.5" font-family="Times,serif" font-size="14.00">&#45;mysql : variable = mysql</text>
<text text-anchor="start" x="1196.92" y="-503.7" font-family="Times,serif" font-size="14.00">&#45;mysqlConfigParams : variable = rawdata</text>
<text text-anchor="start" x="1196.92" y="-486.9" font-family="Times,serif" font-size="14.00">&#45;rawdata : variable</text>
</g>
<!-- 35 -->
<g id="node34" class="node"><title>35</title>
<polygon fill="lightblue" stroke="black" points="1175.44,-403.3 1175.44,-469.7 1452.56,-469.7 1452.56,-403.3 1175.44,-403.3"/>
<text text-anchor="middle" x="1314" y="-453.1" font-family="Times,serif" font-size="14.00">«FUNCTION»</text>
<text text-anchor="middle" x="1314" y="-436.3" font-family="Times,serif" font-size="14.00"> function</text>
<polyline fill="none" stroke="black" points="1175.44,-428.1 1452.56,-428.1 "/>
<text text-anchor="start" x="1183.44" y="-411.5" font-family="Times,serif" font-size="14.00">+module.exports : identifier = connectMySQL</text>
</g>
<!-- 34&#45;&gt;35 -->
<g id="edge28" class="edge"><title>34&#45;&gt;35</title>
<path fill="none" stroke="black" d="M1314,-470.246C1314,-470.159 1314,-470.072 1314,-469.985"/>
<polygon fill="black" stroke="black" points="1314,-466.563 1318,-472.563 1314,-478.563 1310,-472.563 1314,-466.563"/>
</g>
<!-- 36 -->
<g id="node35" class="node"><title>36</title>
<polygon fill="khaki" stroke="black" points="1210.48,-323.5 1210.48,-365.1 1315.52,-365.1 1315.52,-323.5 1210.48,-323.5"/>
<text text-anchor="middle" x="1263" y="-348.5" font-family="Times,serif" font-size="14.00">«BLOCK»</text>
<text text-anchor="middle" x="1263" y="-331.7" font-family="Times,serif" font-size="14.00"> CallExpression</text>
</g>
<!-- 35&#45;&gt;36 -->
<g id="edge29" class="edge"><title>35&#45;&gt;36</title>
<path fill="none" stroke="black" d="M1289.74,-392.587C1284.35,-383.066 1278.9,-373.414 1274.33,-365.335"/>
<polygon fill="black" stroke="black" points="1289.83,-392.745 1296.26,-395.999 1295.73,-403.191 1289.3,-399.936 1289.83,-392.745"/>
</g>
<!-- 37 -->
<g id="node36" class="node"><title>37</title>
<polygon fill="khaki" stroke="black" points="1322.2,-323.5 1322.2,-365.1 1435.8,-365.1 1435.8,-323.5 1322.2,-323.5"/>
<text text-anchor="middle" x="1379" y="-348.5" font-family="Times,serif" font-size="14.00">«BLOCK»</text>
<text text-anchor="middle" x="1379" y="-331.7" font-family="Times,serif" font-size="14.00"> ReturnStatement</text>
</g>
<!-- 35&#45;&gt;37 -->
<g id="edge30" class="edge"><title>35&#45;&gt;37</title>
<path fill="none" stroke="black" d="M1344.48,-393.201C1351.49,-383.481 1358.62,-373.588 1364.56,-365.335"/>
<polygon fill="black" stroke="black" points="1344.3,-393.455 1344.04,-400.661 1337.28,-403.191 1337.55,-395.984 1344.3,-393.455"/>
</g>
<!-- 4&#45;&gt;1 -->
<g id="edge34" class="edge"><title>4&#45;&gt;1</title>
<path fill="none" stroke="black" d="M1017.87,-800.2C1017.5,-798.161 1017.13,-796.122 1016.75,-794.083"/>
<polygon fill="black" stroke="black" points="1021.62,-801.255 1016.38,-792.044 1014.73,-802.51 1021.62,-801.255"/>
</g>
<!-- 4&#45;&gt;2 -->
<g id="edge35" class="edge"><title>4&#45;&gt;2</title>
<path fill="none" stroke="black" d="M1170.6,-801.926C1173.08,-801.321 1175.55,-800.745 1178,-800.2 1381.14,-755.094 1985.35,-724.986 2263.25,-713.147"/>
<polygon fill="black" stroke="black" points="2256.66,-717.724 2266,-712.717 2255.58,-710.808 2256.66,-717.724"/>
</g>
<!-- 39 -->
<g id="node38" class="node"><title>39</title>
<polygon fill="lightblue" stroke="black" points="730.96,-837.9 730.96,-879.5 841.04,-879.5 841.04,-837.9 730.96,-837.9"/>
<text text-anchor="middle" x="786" y="-862.9" font-family="Times,serif" font-size="14.00">«FUNCTION»</text>
<text text-anchor="middle" x="786" y="-846.1" font-family="Times,serif" font-size="14.00"> (req,res)</text>
</g>
<!-- 40 -->
<g id="node39" class="node"><title>40</title>
<polygon fill="lightblue" stroke="black" points="530.96,-837.9 530.96,-879.5 641.04,-879.5 641.04,-837.9 530.96,-837.9"/>
<text text-anchor="middle" x="586" y="-862.9" font-family="Times,serif" font-size="14.00">«FUNCTION»</text>
<text text-anchor="middle" x="586" y="-846.1" font-family="Times,serif" font-size="14.00"> (req,res)</text>
</g>
<!-- 41 -->
<g id="node40" class="node"><title>41</title>
<polygon fill="lightblue" stroke="black" points="137.437,-825.5 137.437,-891.9 358.563,-891.9 358.563,-825.5 137.437,-825.5"/>
<text text-anchor="middle" x="248" y="-875.3" font-family="Times,serif" font-size="14.00">«FUNCTION»</text>
<text text-anchor="middle" x="248" y="-858.5" font-family="Times,serif" font-size="14.00"> (req,res)</text>
<polyline fill="none" stroke="black" points="137.437,-850.3 358.563,-850.3 "/>
<text text-anchor="start" x="145.437" y="-833.7" font-family="Times,serif" font-size="14.00">+module.exports : identifier = router</text>
</g>
</g>
</svg>
